<svg xmlns="http://www.w3.org/2000/svg" width="65" height="60" viewBox="0 0 65 60"><g><g><path fill="#fff" d="M15.906 50.62c-.042.89-.495 1.6-1.218 2.108-.16.113-.396.123-.486.15-1.067 0-1.725-.917-1.367-1.805.177-.43.408-.835.69-1.205.367-.493.898-.61 1.477-.415.552.186.93.579.904 1.168zm9.09 3.718c-.626 1.216-1.332 2.395-2.063 3.555-.39.618-1.187.71-1.8.32-.587-.374-.82-1.08-.473-1.716a56.315 56.315 0 0 1 2.014-3.439c.207-.313.64-.475.968-.706 1.105.103 1.818 1.083 1.354 1.986zm-3.674-3.123c-.926 1.7-1.917 3.372-2.92 5.032-.408.674-1.185.825-1.827.452a1.286 1.286 0 0 1-.491-1.805c.942-1.67 1.899-3.338 2.907-4.97.204-.337.659-.508.998-.762 1.152.11 1.847 1.117 1.333 2.053zm22.82-36.412a4.635 4.635 0 1 1-4.66 4.598 4.645 4.645 0 0 1 4.66-4.598zm-2.207 3.95c-.421.454-.377.97.142 1.511.306.321.617.64.947.935.496.441 1 .452 1.468 0a32.646 32.646 0 0 0 1.67-1.736c.425-.478.373-1.005-.055-1.41-.428-.403-.95-.402-1.412.031-.322.301-.618.631-.936.958l-.262-.233c-.597-.515-1.119-.534-1.558-.057zM64.45 40.72c-1.605.94-3.222 1.856-4.84 2.774-.217.1-.44.184-.67.254-.207-.211-.501-.413-.665-.691a5595.581 5595.581 0 0 1-8.77-15.067c-.395-.675-.317-1.005.358-1.396 1.57-.915 3.146-1.82 4.728-2.713.668-.38 1.004-.274 1.396.4a9130.502 9130.502 0 0 1 8.76 15.072c.381.65.323 1.014-.297 1.367zm-9.188 1.286c.231.396.182.595-.127.904-1.396 1.403-2.777 2.836-4.189 4.282-1.023-.583-1.954-1.108-2.882-1.64l-16.06-9.21c-1.001-.575-1.31-.501-2.017.41-1.375 1.772-2.965 3.306-4.958 4.372a6.565 6.565 0 0 1-1.366.485c-.494.135-.746-.11-.676-.605.058-.502.165-.998.32-1.479a21.5 21.5 0 0 1 3.45-6.168c.676-.86 1.642-1.242 2.634-1.556 2.57-.82 5.23-.996 7.902-.82 1.749.116 3.487.381 5.228.58 2.149.272 4.33.1 6.409-.507l1.922 3.326c1.469 2.544 2.926 5.094 4.41 7.626zm-5.047 8.685c-.406.694-1.186.877-1.986.422l-9.074-5.205a410.47 410.47 0 0 0-3.139-1.79c-.751-.43-1.31-.34-1.64.253-.315.564-.11 1.069.618 1.488 3.205 1.845 6.412 3.684 9.623 5.517.53.302.932.68.932 1.327a1.35 1.35 0 0 1-1.947 1.2c-.517-.24-1.002-.546-1.497-.83-2.27-1.307-4.542-2.612-6.816-3.913a3.347 3.347 0 0 0-.804-.36c-.466-.119-.831.084-1.061.497a.899.899 0 0 0 .17 1.159c.173.155.365.287.571.393 2.148 1.223 4.293 2.45 6.436 3.682.707.406 1.006.932.897 1.524-.18.978-1.182 1.424-2.114.903-1.534-.854-3.046-1.739-4.57-2.61-.275-.158-.55-.315-.826-.47-.794-.45-1.375-.36-1.695.214-.32.574-.1 1.081.661 1.523 1.007.58 2.028 1.138 3.023 1.736.587.317.84 1.026.586 1.644a1.34 1.34 0 0 1-1.476.85 2.037 2.037 0 0 1-.644-.254 143.693 143.693 0 0 1-3.237-1.872c-.168-.1-.355-.32-.37-.498-.192-2.342-1.287-3.463-3.62-3.627-.389-2.04-1.587-3.127-3.67-3.189-.235-1.567-1.064-2.65-2.588-3.047-1.452-.376-2.663.116-3.628 1.312-.661-.72-1.459-1.227-2.439-1.32-.98-.095-1.83.216-2.623.851l-1.468-1.09c-.488-.366-.98-.734-1.503-1.128.083-.16.153-.306.234-.445 2.457-4.218 4.906-8.44 7.347-12.666.192-.33.377-.496.79-.435 2.131.32 4.265.61 6.507.925-.14.235-.246.421-.36.604-1.216 1.944-2.32 3.943-2.784 6.208a4.023 4.023 0 0 0 0 1.629c.344 1.514 1.735 2.194 3.457 1.721 1.78-.487 3.215-1.575 4.559-2.78a21.734 21.734 0 0 0 1.936-2.007c.3-.35.507-.367.888-.145 5.313 3.053 10.628 6.103 15.944 9.15.587.34 1.178.667 1.757 1.015.805.484 1.049 1.24.643 1.934zM22.749 25.049a13.729 13.729 0 0 1-4.717-17.136C20.846 1.796 27.508-1.277 34.1.5c5.56 1.5 10.407 7.446 9.953 12.208-5.586.096-8.911 6.843-4.74 11.417-3.963 3.63-10.992 4.733-16.564.924zm5.83 32.62c-.474.825-.791 1.774-1.665 2.314h-.889c-1.05-.763-1.16-1.298-.5-2.44.233-.402.45-.81.705-1.2.452-.699 1.257-.898 1.923-.496.617.374.827 1.125.425 1.822zM9.458 41.601a980.197 980.197 0 0 1-2.709 4.654c-.45.77-.835.87-1.608.43-1.47-.835-2.937-1.666-4.398-2.519a7.646 7.646 0 0 1-.744-.56v-.634l9.143-15.71c.309-.53.606-1.066.927-1.586.345-.559.773-.691 1.346-.37 1.604.896 3.198 1.809 4.78 2.74.63.363.687.778.266 1.506-2.333 4.017-4.668 8.034-7.003 12.049z"/></g></g></svg>