<svg xmlns="http://www.w3.org/2000/svg" width="12" height="15" viewBox="0 0 12 15"><g><g><g><path fill="#fff" d="M8.198 13.847c0 .191-.154.346-.343.346H1.139a.345.345 0 0 1-.343-.346V4.15c0-.19.154-.346.343-.346h6.716c.19 0 .343.155.343.346zM7.858 3H1.142C.512 3 0 3.515 0 4.15v9.7C0 14.485.512 15 1.142 15h6.716C8.488 15 9 14.485 9 13.85v-9.7A1.15 1.15 0 0 0 7.858 3z"/></g><g><path fill="#fff" d="M10.858 0H4.142C3.512 0 3 .515 3 1.15a.4.4 0 1 0 .799 0c0-.191.154-.346.343-.346h6.716c.19 0 .343.155.343.346v9.7c0 .19-.154.346-.343.346a.4.4 0 0 0-.4.402.4.4 0 0 0 .4.402c.63 0 1.142-.515 1.142-1.15v-9.7C12 .515 11.488 0 10.858 0z"/></g></g></g></svg>