<svg xmlns="http://www.w3.org/2000/svg" width="61" height="74" viewBox="0 0 61 74"><g><g><g><path fill="#fff" d="M40 16c1.371 1.247 3.102 2 5.008 2 1.893 0 3.617-.768 4.992-1.996-1.234.409-3.104.625-4.992.625-1.896 0-3.774-.216-5.008-.629z"/></g><g><path fill="#fff" d="M14.5 35l2.5-2.927-2.102-5.967h.017l.82-1.106c-.394.17-.81.273-1.235.273-.424 0-.84-.103-1.236-.273l.82 1.106h.02L12 32.073z"/></g><g><path fill="#fff" d="M12.469 25.148c-1.69-1.181-2.852-3.497-2.852-5.594 0-2.953 2.309-5.345 5.154-5.345 2.848 0 5.157 2.39 5.157 5.345 0 2.097-1.165 4.41-2.852 5.594 3.784.994 6.615 4.235 6.965 6.852a12.267 12.267 0 0 0 2.5-7.434c0-1.682-.33-3.287-.925-4.748l12.638-6.895c.206.403.457.777.722 1.136.245-1.738 2.128-3.882 4.64-4.541-1.128-.786-1.9-2.332-1.9-3.731 0-1.97 1.539-3.564 3.436-3.564 1.895 0 3.441 1.596 3.441 3.564 0 1.399-.779 2.944-1.901 3.73 2.523.664 4.41 2.82 4.64 4.567A8.223 8.223 0 0 0 53 9.126C53 4.643 49.488 1 45.156 1c-4.333 0-7.848 3.645-7.848 8.126 0 .896.174 1.74.432 2.546L24.989 18.63c-2.015-3.717-5.81-6.258-10.22-6.258C8.27 12.372 3 17.832 3 24.566c0 2.81.957 5.37 2.498 7.432.353-2.617 3.187-5.858 6.97-6.85z"/></g><g><path fill="#fff" d="M47 14.24l-1.264-3.58h.013l.49-.66a1.92 1.92 0 0 1-.74.158c-.254 0-.502-.06-.741-.158l.49.66h.015L44 14.24 45.5 16z"/></g><g><path fill="#fff" d="M42.053 55.32h.03L43.224 54c-.55.2-1.13.321-1.726.321A5.06 5.06 0 0 1 39.77 54l1.145 1.32h.033L38 62.481 41.5 66l3.5-3.518z"/></g><g><path fill="#fff" d="M42.5 66.96c-3.61 0-7.192-.324-9.5-.96 2.598 1.874 5.902 3 9.5 3 3.6 0 6.902-1.126 9.5-3-2.308.634-5.89.96-9.5.96z"/></g><g><path fill="#fff" d="M29.438 62c.433-3.511 4.296-7.888 9.463-9.224-2.293-1.576-3.872-4.673-3.872-7.47 0-3.941 3.135-7.137 7-7.137 3.867 0 7 3.196 7 7.136 0 2.796-1.58 5.895-3.874 7.47 5.169 1.34 9.031 5.714 9.463 9.225A16.396 16.396 0 0 0 58 52.002c0-8.995-7.153-16.289-15.976-16.289-4.666 0-8.855 2.054-11.774 5.31L22.268 33C18.82 34.256 10.817 34.3 7 33.145c2.046 1.653 4.594 2.678 7.404 2.678 2.48 0 4.787-.77 6.701-2.086l8.286 8.327A16.398 16.398 0 0 0 26.053 52c0 3.775 1.271 7.24 3.385 10z"/></g></g></g></svg>