<svg xmlns="http://www.w3.org/2000/svg" width="86" height="103" viewBox="0 0 86 103"><g><g><path fill="#44566c" d="M85.833 42.917c0 5.688-4.611 10.3-10.3 10.3H66.95v41.2A8.594 8.594 0 0 1 58.366 103H20.6a8.594 8.594 0 0 1-8.584-8.583V75.533H10.3a1.717 1.717 0 0 1-1.717-1.716V55.639A13.722 13.722 0 0 1 .108 44.623c-.942-7.52 4.39-14.379 11.908-15.321V8.583A8.594 8.594 0 0 1 20.6 0h37.766a8.594 8.594 0 0 1 8.584 8.583v24.034h8.583c5.689 0 10.3 4.611 10.3 10.3zM15.45 15.45h48.066V8.583a5.15 5.15 0 0 0-5.15-5.15H20.6a5.15 5.15 0 0 0-5.15 5.15zm-1.717 37.767c5.689 0 10.3-4.612 10.3-10.3 0-5.689-4.611-10.3-10.3-10.3-5.689 0-10.3 4.611-10.3 10.3.006 5.686 4.614 10.294 10.3 10.3zM15.45 72.1V56.532c-.57.075-1.143.114-1.717.118a13.835 13.835 0 0 1-1.717-.118V72.1zm48.066 17.167H15.45v5.15a5.15 5.15 0 0 0 5.15 5.15h37.766a5.15 5.15 0 0 0 5.15-5.15zm0-36.05H41.2c-5.689 0-10.3-4.612-10.3-10.3 0-5.689 4.611-10.3 10.3-10.3h22.316V18.883H15.45v10.419a13.722 13.722 0 0 1 11.015 8.475c2.84 7.026-.556 15.023-7.582 17.862v18.178c0 .948-.769 1.716-1.717 1.716H15.45v10.3h48.066zm18.884-10.3a6.867 6.867 0 0 0-6.867-6.867H41.2a6.867 6.867 0 0 0 0 13.733h34.333a6.867 6.867 0 0 0 6.867-6.866zm-42.917-3.434h3.433v6.867h-3.433zM20.6 42.917a6.867 6.867 0 1 1-13.734 0 6.867 6.867 0 0 1 13.734 0zm-3.434 0a3.433 3.433 0 1 0-6.866 0 3.433 3.433 0 0 0 6.866 0zm5.15 22.316h3.434v3.434h-3.434zm6.867 0H46.35v3.434H29.183zm-6.867-6.866H46.35V61.8H22.316zm37.767 1.716v6.867c0 .948-.769 1.717-1.717 1.717H51.5a1.717 1.717 0 0 1-1.717-1.717v-6.867c0-.948.769-1.716 1.717-1.716h6.866c.948 0 1.717.768 1.717 1.716zM56.65 61.8h-3.434v3.433h3.434zm-20.6 30.9h6.866v3.433H36.05zM27.466 8.583H51.5v3.434H27.466z"/></g></g></svg>