<svg xmlns="http://www.w3.org/2000/svg" width="67" height="103" viewBox="0 0 67 103"><g><g><path fill="#44566c" d="M40.107 57.291l2.849 1.71-9.968 16.613a1.66 1.66 0 0 1-2.598.319l-6.645-6.646 2.349-2.349 5.142 5.14zm-.236-24.065h3.323v3.322H39.87zm0-9.968h-6.645v-3.323h8.306a1.66 1.66 0 0 1 1.662 1.662v8.306H39.87zm-6.645 3.323h3.322v3.322h-3.322zm-3.323 3.322h3.323v3.323h-3.323zm9.968 9.968h3.323v3.323H39.87zm3.323 3.323h3.322v3.322h-3.322zm-6.646-4.984v8.306h-3.322v-6.645H26.58v-3.323h8.306a1.66 1.66 0 0 1 1.661 1.662zm-13.29 4.984h6.645v3.322h-8.306a1.66 1.66 0 0 1-1.662-1.661v-11.63h3.323zm4.984-13.29h-8.307V26.58h6.646v-6.646h3.322v8.307a1.66 1.66 0 0 1-1.661 1.661zm-8.307-9.969h3.323v3.323h-3.323zM13.29 51.5V14.952a1.66 1.66 0 0 1 1.662-1.662H51.5a1.66 1.66 0 0 1 1.661 1.662V51.5a1.66 1.66 0 0 1-1.661 1.661H14.952A1.66 1.66 0 0 1 13.29 51.5zm3.323-1.661h33.226V16.613H16.613zM59.806 8.306v73.097a1.66 1.66 0 0 1-1.66 1.662H8.305a1.66 1.66 0 0 1-1.66-1.662V8.306a1.66 1.66 0 0 1 1.66-1.66h49.84a1.66 1.66 0 0 1 1.66 1.66zm-3.322 1.662H9.968v69.774h46.516zM38.21 91.37a4.99 4.99 0 0 1-4.984 4.984 4.99 4.99 0 0 1-4.984-4.984 4.99 4.99 0 0 1 4.984-4.984 4.99 4.99 0 0 1 4.984 4.984zm-3.323 0c0-.915-.744-1.661-1.661-1.661s-1.661.746-1.661 1.661.744 1.661 1.66 1.661c.918 0 1.662-.746 1.662-1.661zM66.452 8.306v86.388c0 4.58-3.727 8.306-8.307 8.306H8.306C3.726 103 0 99.274 0 94.694V8.306C0 3.726 3.726 0 8.306 0h49.84c4.58 0 8.306 3.726 8.306 8.306zm-3.323 0a4.99 4.99 0 0 0-4.984-4.983H8.306a4.99 4.99 0 0 0-4.983 4.983v86.388a4.99 4.99 0 0 0 4.983 4.983h49.84a4.99 4.99 0 0 0 4.983-4.983z"/></g></g></svg>