<svg xmlns="http://www.w3.org/2000/svg" width="103" height="103" viewBox="0 0 103 103"><g><g><path fill="#44566c" d="M76.42 4.71c-1.955 0-3.65 3.792-4.467 6.97-.331-1.481-.518-2.804-.518-3.598a16.564 16.564 0 0 0-4.983 11.853c0 9.16 7.452 16.613 16.613 16.613 2.668 0 5.192-3.023 7.429-6.107 1.324.408 3.835.801 4.197 1.176-.035-1.197-.423-3.362-1.052-5.505.365-.457.717-.861 1.055-1.193 0 1.679 1.642 3.167 2.294 4.07a16.516 16.516 0 0 0 2.69-9.054c0-9.16-7.453-16.612-16.613-16.612-2.362 0-4.61 5.753-6.646 6.645a4.99 4.99 0 0 1 4.984 4.984 4.99 4.99 0 0 1-4.984 4.983c-1.954 0-3.65-4.606-4.466-8.255-.331 1.29-.518 2.478-.518 3.272M86.387 39.57v55.124c0 4.58-3.726 8.306-8.306 8.306H18.274C8.198 103 0 94.802 0 84.726c0-9.516 7.313-17.347 16.613-18.19V8.306c0-4.58 3.726-8.306 8.306-8.306h58.146C94.057 0 103 8.943 103 19.935c0 9.859-7.2 18.047-16.613 19.635zM18.274 99.677c8.245 0 14.952-6.706 14.952-14.951 0-8.245-6.707-14.952-14.952-14.952-8.245 0-14.951 6.707-14.951 14.952 0 8.245 6.706 14.951 14.951 14.951zm14.086-26.58h2.527c.917 0 1.661-.744 1.661-1.662V64.79c0-.917-.744-1.661-1.66-1.661h-6.646c-.917 0-1.661.744-1.661 1.661v3.678a18.422 18.422 0 0 1 5.78 4.629zM83.065 39.87c-5.885 0-11.166-2.578-14.818-6.645H26.581a3.326 3.326 0 0 1-3.323-3.323V9.968a3.326 3.326 0 0 1 3.323-3.323h41.666a20.083 20.083 0 0 1 3.821-3.322H24.92a4.99 4.99 0 0 0-4.984 4.983v58.229c1.142.104 2.252.32 3.323.624V64.79a4.99 4.99 0 0 1 4.984-4.984h6.645a4.99 4.99 0 0 1 4.984 4.984v6.645a4.99 4.99 0 0 1-4.984 4.984h-.355a18.155 18.155 0 0 1 2.016 8.307c0 6.18-3.091 11.642-7.8 14.951h49.333a4.99 4.99 0 0 0 4.984-4.983zM26.58 9.968v19.935h39.244a19.785 19.785 0 0 1-2.696-9.968c0-3.633.992-7.032 2.696-9.967zM68.113 39.87h6.645a4.99 4.99 0 0 1 4.984 4.984V51.5a4.99 4.99 0 0 1-4.984 4.984h-6.645a4.99 4.99 0 0 1-4.984-4.984v-6.645a4.99 4.99 0 0 1 4.984-4.984zm6.645 3.323h-6.645c-.917 0-1.661.744-1.661 1.66V51.5c0 .917.744 1.661 1.66 1.661h6.646c.917 0 1.661-.744 1.661-1.661v-6.645c0-.917-.744-1.661-1.66-1.661zm-34.887 1.66V51.5a4.99 4.99 0 0 1-4.984 4.984h-6.645a4.99 4.99 0 0 1-4.984-4.984v-6.645a4.99 4.99 0 0 1 4.984-4.984h6.645a4.99 4.99 0 0 1 4.984 4.984zm-3.323 0c0-.916-.744-1.66-1.66-1.66h-6.646c-.917 0-1.661.744-1.661 1.66V51.5c0 .917.744 1.661 1.66 1.661h6.646c.917 0 1.661-.744 1.661-1.661zm23.258 0V51.5a4.99 4.99 0 0 1-4.983 4.984h-6.646a4.99 4.99 0 0 1-4.983-4.984v-6.645a4.99 4.99 0 0 1 4.983-4.984h6.646a4.99 4.99 0 0 1 4.983 4.984zm-3.322 0c0-.916-.744-1.66-1.661-1.66h-6.646c-.917 0-1.66.744-1.66 1.66V51.5c0 .917.743 1.661 1.66 1.661h6.646c.917 0 1.66-.744 1.66-1.661zm3.322 19.936v6.645a4.99 4.99 0 0 1-4.983 4.984h-6.646a4.99 4.99 0 0 1-4.983-4.984V64.79a4.99 4.99 0 0 1 4.983-4.984h6.646a4.99 4.99 0 0 1 4.983 4.984zm-3.322 0c0-.917-.744-1.661-1.661-1.661h-6.646c-.917 0-1.66.744-1.66 1.661v6.645c0 .918.743 1.662 1.66 1.662h6.646c.917 0 1.66-.744 1.66-1.662zm3.322 19.936v6.645a4.99 4.99 0 0 1-4.983 4.984h-6.646a4.99 4.99 0 0 1-4.983-4.984v-6.645a4.99 4.99 0 0 1 4.983-4.984h6.646a4.99 4.99 0 0 1 4.983 4.984zm-3.322 0c0-.917-.744-1.661-1.661-1.661h-6.646c-.917 0-1.66.744-1.66 1.66v6.646c0 .917.743 1.661 1.66 1.661h6.646c.917 0 1.66-.744 1.66-1.661zM79.742 64.79v26.581a4.99 4.99 0 0 1-4.984 4.984h-6.645a4.99 4.99 0 0 1-4.984-4.984v-26.58a4.99 4.99 0 0 1 4.984-4.985h6.645a4.99 4.99 0 0 1 4.984 4.984zm-3.323 0c0-.917-.744-1.661-1.66-1.661h-6.646c-.917 0-1.661.744-1.661 1.661v26.581c0 .917.744 1.661 1.66 1.661h6.646c.917 0 1.661-.744 1.661-1.661zm-1.36-35.798L88.356 9.058l2.764 1.844-13.297 19.934zm9.667-4.073a4.99 4.99 0 0 1 4.984-4.984c1.594 0 3.016 3.066 3.93 6.177-.964 1.205-2.019 2.774-3.146 4.329-.57-.177-.921-.356-.784-.538a4.99 4.99 0 0 1-4.984-4.984zm9.968 6.87c.057-.057.052-.114-.003-.172l.003.172zm-3.323-6.87a1.662 1.662 0 1 0-3.324.002 1.662 1.662 0 0 0 3.324-.002zm5.617 4.07c-.204.312-.418.617-.641.914 1.07 0 1.056-.338.64-.914zM76.419 16.613a1.662 1.662 0 1 0 0-3.324 1.662 1.662 0 0 0 0 3.324zM27 87.423v3.808h-2.571v-3.808c0-3.065-2.213-5.629-5.143-6.218v7.487h-2.572v-7.487c-2.93.59-5.143 3.153-5.143 6.218v3.808H9v-3.808c0-4.468 3.359-8.176 7.714-8.794V76h2.572v2.63C23.64 79.246 27 82.954 27 87.422z"/></g></g></svg>