<svg xmlns="http://www.w3.org/2000/svg" width="33" height="58" viewBox="0 0 33 58"><g><g><path fill="#fff" d="M29.823 44.596H3.18V7.129h26.644zM16.507 53.83a2.707 2.707 0 0 1-2.712-2.697 2.704 2.704 0 0 1 2.712-2.693 2.703 2.703 0 0 1 2.708 2.693 2.706 2.706 0 0 1-2.708 2.697zM10.45 2.566h12.104c.306 0 .555.454.555 1.016 0 .563-.249 1.02-.555 1.02H10.45c-.308 0-.552-.457-.552-1.02 0-.562.244-1.016.552-1.016zM28.76 0H4.24A4.231 4.231 0 0 0 0 4.225v49.554C0 56.11 1.894 58 4.24 58h24.52c2.342 0 4.24-1.892 4.24-4.22V4.224A4.234 4.234 0 0 0 28.76 0z"/></g></g></svg>