<svg xmlns="http://www.w3.org/2000/svg" width="77" height="64" viewBox="0 0 77 64"><g><g><g><path fill="#fff" d="M70.823 45.596H44.18V8.129h26.644zM57.507 54.83a2.707 2.707 0 0 1-2.712-2.697 2.704 2.704 0 0 1 2.712-2.693 2.703 2.703 0 0 1 2.708 2.693 2.706 2.706 0 0 1-2.708 2.697zM51.45 3.566h12.104c.306 0 .555.454.555 1.016 0 .563-.249 1.02-.555 1.02H51.45c-.308 0-.552-.457-.552-1.02 0-.562.244-1.016.552-1.016zM69.76 1H45.24A4.231 4.231 0 0 0 41 5.225v49.554C41 57.11 42.894 59 45.24 59h24.52c2.342 0 4.24-1.892 4.24-4.22V5.224A4.234 4.234 0 0 0 69.76 1z"/></g></g><g><g><path fill="#fff" d="M7.838 52H6.461C4.553 52 3 53.57 3 55.5v2.548c0 .526.421.952.941.952H8a2.866 2.866 0 0 1-.162-.952z"/></g><g><path fill="#fff" d="M14.838 47h-1.377A3.47 3.47 0 0 0 10 50.472v7.584c0 .521.421.944.941.944H15a2.828 2.828 0 0 1-.162-.944z"/></g><g><path fill="#fff" d="M35.807 35.711l-7.017-9.32A.989.989 0 0 0 28 26a.989.989 0 0 0-.79.391l-7.017 9.32a.954.954 0 0 0-.088 1.01.985.985 0 0 0 .878.533h2.526v20.78c0 .533.44.966.982.966h7.017a.975.975 0 0 0 .983-.967v-20.78h2.526c.371 0 .711-.205.878-.531a.954.954 0 0 0-.088-1.01z"/></g><g><path fill="#fff" d="M21.838 41h-1.377C18.553 41 17 42.644 17 44.664v13.34c0 .55.422.996.941.996H22a3.134 3.134 0 0 1-.162-.996z"/></g></g></g></svg>